<svg width="804" height="903" fill="none" xmlns="http://www.w3.org/2000/svg"><path d="M425.334 211H204.979c-29.948 0-54.249 26.15-54.249 58.329v510.215c0 32.243 24.301 58.456 54.249 58.456h220.355c30.011 0 54.396-26.213 54.396-58.456V269.329c0-32.179-24.385-58.329-54.396-58.329Zm38.788 570.766a40.618 40.618 0 0 1-40.48 40.472H206.819a40.683 40.683 0 0 1-28.624-11.9 40.712 40.712 0 0 1-11.941-28.615V267.235a40.717 40.717 0 0 1 11.941-28.617 40.682 40.682 0 0 1 28.624-11.899h216.823a40.604 40.604 0 0 1 28.594 11.906 40.627 40.627 0 0 1 11.886 28.61v514.531Z" fill="#353642"/><path d="M516.24 158.942a38.9 38.9 0 0 1 20.65-6.21c1.27 0 2.51.07 3.73.18-.52-2.18-1.17-4.74-2-7.52a18.899 18.899 0 0 1-10.13-13.57c-.941.163-1.895.247-2.85.25a17.56 17.56 0 0 1-9.6-2.82 18.104 18.104 0 0 1-2.07-.58c-.895.158-1.801.242-2.71.25a17.58 17.58 0 0 1-12.38-5l-8.67 3s22.24 11.22 26.03 32.02Z" fill="#3FBDF1"/><path d="M518.83 810.21a60.17 60.17 0 0 1-60.14 60.15h-286.3a60.168 60.168 0 0 1-60.15-60.15V185.46a60.154 60.154 0 0 1 37.122-55.614 60.139 60.139 0 0 1 23.028-4.586h38.26a25.994 25.994 0 0 1 18.36 7.6 25.626 25.626 0 0 1 7.52 16.65c.056.521.083 1.045.08 1.57v1.33a27.15 27.15 0 0 0 2.9 10.95c.05.08.08.19.13.27a24.878 24.878 0 0 0 22.25 13.57h106.57a25.934 25.934 0 0 0 18.39-7.61 24.777 24.777 0 0 0 4.57-6.29.378.378 0 0 0 .11-.16 25.003 25.003 0 0 0 2.87-10.78v-1c.08-14.31 11-26.13 25.33-26.13h32.31l34-.42c.69-6.5 3.46-13.34 6.32-19.38a41.039 41.039 0 0 1 3.37-6H174.84a78.869 78.869 0 0 0-55.787 23.103A78.89 78.89 0 0 0 95.95 178.32v645.79A78.865 78.865 0 0 0 144.647 897a78.876 78.876 0 0 0 30.193 6h290.1a78.898 78.898 0 0 0 72.894-48.698 78.892 78.892 0 0 0 6.006-30.192v-44.47l-25 14.25-.01 16.32Z" fill="#3FBDF1"/><path d="M527.551 315.172c-3-3.09-5.9 1.71-8.72-1.57v237.63a158.034 158.034 0 0 1 6.51-19.07c.58-1.36 1.16-2.73 1.76-4.08 1.27-2.79 2.6-5.54 4-8.27.38-.78.77-1.52 1.18-2.26.41-.74.91-1.69 1.38-2.49.8-1.46 1.66-2.92 2.54-4.35.6-1.08 1.27-2.12 1.93-3.17.49-.83 1-1.63 1.54-2.4.58-.94 1.21-1.87 1.82-2.78.75-1.13 1.54-2.26 2.32-3.37v-169.27c-3-2.34-6-4.8-8.82-7.33-2.57-2.32-5.05-4.72-7.44-7.22ZM541.45 150c-3.46 4.36-7.75.7-13.33.7-5.08 0-8 8.22-11.22 4.91.18.44-1.63 7-1.48 7.44.49 1.32.93 2.7 1.32 4.08v.05c.5 1.77.88 3.53 1.21 5.35.08.41.17.86.22 1.3.14.93.28 1.9.36 2.86.109.89.172 1.784.19 2.68.09 1 .11 2.09.11 3.17v70a8.334 8.334 0 0 1 2 2.45c4 7.3 7.83 1.83 12.11 9 2.28 3.7 7 6.59 9.42 3.91.89-1 1.44-5.28 1.44-6.88v-84.58a81.698 81.698 0 0 0-.89-12c-.18-1.51-1.14-12.91-1.46-14.44ZM236.641 149.711a24.397 24.397 0 0 1 2.9 10.94 27.132 27.132 0 0 1-2.9-10.94ZM394.4 149.648a25.01 25.01 0 0 1-2.87 10.78 26.913 26.913 0 0 1 2.87-10.78Z" fill="#3FBDF1"/><path d="M777.23 454.759c-95.54 29.83-144.93-43.23-144.93-43.23 3.61-5.35-1.85-15.41-1.85-15.41l-3.32-17c-42.21-2.07-80.4-43.21-80.4-43.21 54.61-9.68 31.07-42.39 31.07-42.39l37.65 29.48 4.08-.36c.5-51 32.61-74.82 42.67-82.89 10.06-8.07 11.78-.06 11.78-.06s-4.42 16.32 14.44 18.58c18.86 2.26 32.67-15.41 32.67-15.41 6.47-14.5 13.92-5.51 13.92-5.51 32.33 17.2 38.18 59.76 45.12 89.5 4.79 20.38 13.91 64.3 20 85.7a34.303 34.303 0 0 1-1.21 22.45 34.544 34.544 0 0 1-21.69 19.76Z" fill="#353642"/><path d="M777.23 454.759c-95.54 29.83-144.93-43.23-144.93-43.23 3.61-5.35-1.85-15.41-1.85-15.41l-3.32-17c-42.21-2.07-80.4-43.21-80.4-43.21 36.18-18.09 31.07-42.39 31.07-42.39l37.65 29.48 4.08-.36c.5-51 32.61-74.82 42.67-82.89 10.06-8.07 11.78-.06 11.78-.06s-4.42 16.32 14.44 18.58c18.86 2.26 32.67-15.41 32.67-15.41 6.47-14.5 13.92-5.51 13.92-5.51 32.33 17.2 38.18 59.76 45.12 89.5 4.79 20.38 13.91 64.3 20 85.7a34.303 34.303 0 0 1-1.21 22.45 34.544 34.544 0 0 1-21.69 19.76Z" fill="#F56565"/><path d="M664.621 197.222c5.97 0 10.81-4.84 10.81-10.81 0-5.971-4.84-10.81-10.81-10.81-5.97 0-10.81 4.839-10.81 10.81 0 5.97 4.84 10.81 10.81 10.81Z" fill="#D7E8F0"/><path d="M679.35 208.18c-.94 6.92-6.81 11.44-12.93 10.44" stroke="#000" stroke-width="4.13" stroke-miterlimit="10"/><path d="M606.891 147.899a22.99 22.99 0 0 0 7.086 12.186 22.99 22.99 0 0 0 12.864 5.764 12.19 12.19 0 0 1 2.62-5.21c5.46-6.21 7.53 5.67 24.81-2.48 24-11.33 32.83-4.39 32.83-4.39.78.61.58 6.07.67 7 .52 5.65 1 11.28 1.59 16.93.34 3.44.67 6.86 1 10.28.335-.57.702-1.121 1.1-1.65 2.32-7.61 8.77-16.52 17-12.46a11.844 11.844 0 0 1 4.22 3.61c5.37 7.36 1 14.28-4.83 19.35a29.983 29.983 0 0 1-4.91 4.22c.91 2 4.64 9.86 4.64 9.89.38.8 14.25-14.28 15.29-15.93a38.756 38.756 0 0 0 2.65-12.74c.58-17.94-6.31-39-20.65-49.56-3.55-2.62-4.79-5.1-5-8.57a.927.927 0 0 0-.644-.829.934.934 0 0 0-1.006.299c-4.66 5.16-15.93 4.41-15.93 4.41-39-10.58-52.46 6.56-60.4 9.49a14.863 14.863 0 0 1-10 0 5.995 5.995 0 0 1-4.19 4.6l.17 1.82a6.06 6.06 0 0 1-.98 3.97Z" fill="#3FBDF1"/><path d="M690.571 221.389c-2.57 2-9.75 7.76-12.62 9.47a42.646 42.646 0 0 1-6.61 3.25c-17.26 6.51-33.44-8.29-39.37-23.1-4.88-12.21-6-25.85-5.65-38.89.06-1.35.11-2.73.22-4.11a.75.75 0 0 1 0-.25c.053-.629.146-1.254.28-1.87a12.074 12.074 0 0 1 2.62-5.21c5.45-6.2 7.52 5.68 24.8-2.48 24-11.33 32.84-4.39 32.84-4.39.77.61.57 6.07.66 7 .52 5.66 1 11.28 1.6 16.93.33 3.45.66 6.86 1 10.28.08.94.17 1.85.25 2.78.122-1.513.407-3.009.85-4.46 2.32-7.61 8.77-16.51 17-12.46a11.844 11.844 0 0 1 4.22 3.61c5.37 7.36 1 14.28-4.83 19.35a43.969 43.969 0 0 1-4.68 3.5l-.44.28.22.44c.91 2 4.63 9.87 4.63 9.89.38.8 14.25-14.27 15.3-15.93a42.741 42.741 0 0 0 6.61-18.52c.09-.83.14-1.63.17-2.46.58-17.94-6.31-39-20.65-49.56-3.56-2.62-4.8-5.1-5-8.57a.927.927 0 0 0-.644-.829.918.918 0 0 0-.549-.006.921.921 0 0 0-.457.305c-4.66 5.16-15.94 4.41-15.94 4.41-38.95-10.58-52.46 6.56-60.39 9.49-7.93 2.93-14.89-2.48-14.89-2.48l.83 8.87a6.081 6.081 0 0 1-.11 1.82 5.997 5.997 0 0 1-4.19 4.6 4.234 4.234 0 0 1-1.24.25h-.31a31.06 31.06 0 0 0 .72 5.49 22.998 22.998 0 0 0 20 17.95" stroke="#000" stroke-width="4.13" stroke-miterlimit="10"/><path d="M632.31 196.159c5.97 0 10.81-4.84 10.81-10.81 0-5.97-4.84-10.81-10.81-10.81-5.97 0-10.81 4.84-10.81 10.81 0 5.97 4.84 10.81 10.81 10.81Z" fill="#D7E8F0"/><path d="M669.131 190.45a4.435 4.435 0 0 1-2.72 4.123 4.437 4.437 0 0 1-6.072-3.216 4.438 4.438 0 0 1 4.352-5.317 3.8 3.8 0 0 1 1.27.19 2.233 2.233 0 0 0-.69 1.57 2.148 2.148 0 0 0 2.15 2.13 2.084 2.084 0 0 0 1.52-.67c.13.383.194.785.19 1.19ZM637.7 189a4.422 4.422 0 0 1-7.545 3.116 4.42 4.42 0 0 1 4.795-7.216 2.251 2.251 0 0 0-1 1.82 2.124 2.124 0 0 0 .634 1.507 2.132 2.132 0 0 0 1.516.613 2.047 2.047 0 0 0 1.49-.61c.067.252.104.51.11.77Z" fill="#000"/><path d="M648.67 186.238s-2.769 12.31-3.099 13.55c-1 4 6.939 2.76 6.939 2.76M658.831 163.001s13.05-4.89 20.31 4.91M615.45 172.791s6.72-12.21 18.6-9.5M664.621 199.181c7.053 0 12.77-5.718 12.77-12.77 0-7.053-5.717-12.77-12.77-12.77s-12.77 5.717-12.77 12.77c0 7.052 5.717 12.77 12.77 12.77ZM632.311 198.118c7.053 0 12.77-5.717 12.77-12.77s-5.717-12.77-12.77-12.77-12.77 5.717-12.77 12.77 5.717 12.77 12.77 12.77Z" stroke="#000" stroke-width="4.13" stroke-miterlimit="10"/><path d="M632.301 176.669h.29a8.673 8.673 0 0 1 8.53 8.81 8.671 8.671 0 0 1-8.81 8.53h-.27a8.673 8.673 0 0 1-8.53-8.81 8.673 8.673 0 0 1 8.81-8.53h-.02Zm.02-2.07a10.74 10.74 0 0 0-7.893 18.211 10.74 10.74 0 0 0 7.543 3.269h.36a10.737 10.737 0 0 0 10.915-10.565 10.743 10.743 0 0 0-10.565-10.915h-.36Z" fill="#fff"/><path d="m651.85 185.99-6.78-.22" stroke="#000" stroke-width="4.13" stroke-miterlimit="10"/><path d="m661.431 643.491-13.56 83.06-14.69-2.2a12.263 12.263 0 0 1-10.23-13.84l1.09-8.91 10-73.3c16.28 9.54 27.39 15.19 27.39 15.19ZM594.341 750.84l-50.5 29-25 14.39-7.66 4.41a2.157 2.157 0 0 0 0-.44l-6 3.42-7.72-14.83a14.722 14.722 0 0 1 5.99-19.79l87.5-47.91.08.8 3.31 30.95Z" fill="#3FBDF1"/><path d="M520.491 545.58c-.55-.74-1.1-1.46-1.66-2.09-3.17-3.81-6.28-6.37-8.38-10.7a18 18 0 0 1 4.33-21.2 17.463 17.463 0 0 1 4-2.59M626.98 678.811l-2.94 22.77-1.13 8.91a12.263 12.263 0 0 0 10.23 13.84l14.69 2.2 13.56-83.06s-11.11-5.65-27.37-15.21c-11.63-6.84-26-15.69-40.74-25.89" stroke="#000" stroke-width="4.13" stroke-miterlimit="10"/><path d="M624.48 698.481s-15.86-8.55-36-20.86" stroke="#000" stroke-width="4.13" stroke-miterlimit="10"/><g opacity=".68" fill="#D7E8F0"><path opacity=".68" d="M518.83 314.869v236.36c-4.38 16.18-6.47 33-7.58 49.92v-285.68c2.46 3.2 4.99-3.66 7.58-.6ZM518.83 793.891v13.59a60.166 60.166 0 0 1-60.14 60.15h-286.3a60.172 60.172 0 0 1-60.15-60.15v-624.75a60.17 60.17 0 0 1 17.603-42.562 60.173 60.173 0 0 1 42.547-17.638h38.26c1.756.005 3.507.179 5.23.52 1.152.242 2.288.556 3.4.94.49.19 1 .38 1.46.58.78.324 1.541.691 2.28 1.1.889.48 1.747 1.014 2.57 1.6.55.38 1.07.77 1.57 1.18.5.41 1.27 1.11 1.85 1.68l4 5.16c.367.615.701 1.25 1 1.9l1.46 3.69c.2.67.39 1.33.53 2l.36 2.09c.05.28.08.58.11.86.01.137.01.274 0 .41.06.66.11 1.3.11 2v1.46a.558.558 0 0 0-.11-.17 23.575 23.575 0 0 0-4.3-5.79 25 25 0 0 0-17.67-7.33h-36.79a57.93 57.93 0 0 0-40.965 17.004 57.909 57.909 0 0 0-16.925 40.996v601.44a57.918 57.918 0 0 0 57.89 57.92h275.66a57.877 57.877 0 0 0 57.8-55.08 2.157 2.157 0 0 0 0-.44l7.66-4.36Z"/><path opacity=".68" d="M391.53 160.431v1.13a24.997 24.997 0 0 1-25 24.86H263.9c-13.83 0-24.28-11.3-24.34-25.14v-.63a24.891 24.891 0 0 0 22.38 13.84h106.52a25.934 25.934 0 0 0 18.39-7.61 25.553 25.553 0 0 0 4.68-6.45Z"/></g><path d="M543.841 416.929c35.57-7.23 70.1-14.7 88.46-14.45M510.211 622.998c-53.92-43.45-102.85-99.18-81.82-147.73 12.65-29.27 50.09-45.22 90.44-53.87" stroke="#000" stroke-width="4.13" stroke-miterlimit="10"/><path d="M627.39 381.059c.88 3.17 4.91 21.43 5.9 24.73 3.66 11.91-42.92 43.42-50.81 50.5-14.16 12.63-27.56 26.85-38.64 42.7a172.594 172.594 0 0 0-18.5 33.17 158.034 158.034 0 0 0-6.51 19.07c-4.38 16.18-6.47 33-7.58 49.92-.88 12.82-1.21 25.69-1.57 38.26-.74 24.12-.36 48.38 1.22 72.42.11 1.52.22 3 .35 4.52a261.4 261.4 0 0 0 7.23 42.31v.09M620.5 324.72c1.51-46.83 22.77-71.83 41.7-85a60.61 60.61 0 0 1 11.78-6.29M725.94 233.121c.88.33 1.73.69 2.59 1.05l.94.41a60.208 60.208 0 0 1 6.06 3.06 57.338 57.338 0 0 1 17.37 15.27c.181.176.33.383.44.61.82 1.16 1.62 2.34 2.4 3.56 6.92 11 13.37 25.85 18.3 43a238.72 238.72 0 0 1 6.09 26.77" stroke="#000" stroke-width="4.13" stroke-miterlimit="10"/><path d="M780.131 326.84c4.79 20.38 13.92 64.31 20 85.7a34.3 34.3 0 0 1-1.21 22.46 34.531 34.531 0 0 1-8.643 12.297 34.53 34.53 0 0 1-13.047 7.463l-18.09 4.38a8.416 8.416 0 0 0-4.73 3.14 121.719 121.719 0 0 1-13.61 15.16c-78.26 73.68-172.43-2.59-149.85 241.67l.08.8c.913 9.78 2.017 20.09 3.31 30.93l-50.5 28.8-25 14.25-7.63 4.36-6 3.42-7.72-14.83a14.722 14.722 0 0 1 5.96-19.84l7.8-4.33 7.23-4 .35-.19 25-13.84 5.32-3" stroke="#000" stroke-width="4.13" stroke-miterlimit="10"/><path d="M543.851 779.641v41.73a78.921 78.921 0 0 1-78.92 78.91h-298.79a78.92 78.92 0 0 1-55.804-23.109 78.896 78.896 0 0 1-23.116-55.801v-650.25a78.896 78.896 0 0 1 23.116-55.801 78.897 78.897 0 0 1 55.804-23.11h335.09M543.841 171.119a79.568 79.568 0 0 0-1.63-16.12s-1.46-8.83-2.86-11.28M543.841 498.962V331.422M543.841 171.129v101.22M624.041 296.999v-.07a117.663 117.663 0 0 1-24-14.41 147.813 147.813 0 0 1-56.35-97.35c-.133-.953-.253-1.913-.36-2.88M518.851 528.229v-213.44" stroke="#000" stroke-width="4.13" stroke-miterlimit="10"/><path d="M518.851 254.822v-72.08c0-13.13-1.15-28.69-8.22-38.6 0 0-17.15-21.63-34.58-21.63h-55.62" stroke="#000" stroke-width="4.13" stroke-miterlimit="10"/><path d="M442.841 122.512h-22.41a26 26 0 0 0-26 26 25.997 25.997 0 0 1-26 26h-105.82a26 26 0 0 1-26-26 26 26 0 0 0-26-26h-38.22a60.21 60.21 0 0 0-60.17 60.23v624.74a60.19 60.19 0 0 0 60.17 60.16h286.29a60.19 60.19 0 0 0 60.17-60.16v-13.58M537.69 95.922c10.89 4.66 21.06 20.07 26 30.38 9.16 19.13 17.15 33.77 28 52 9.29 15.63 17.81 32.56 32.42 44a48.79 48.79 0 0 0 27 10.47" stroke="#000" stroke-width="4.13" stroke-miterlimit="10"/><path d="M242.041 122.529a119.553 119.553 0 0 1-62.963 105.259 119.554 119.554 0 0 1-122.527-5.589 119.52 119.52 0 0 1 142.93-191.11 119.234 119.234 0 0 1 42.56 91.44Z" fill="#FFFAF0"/><path d="M242.04 122.532a119.521 119.521 0 1 1-239.042-.024 119.521 119.521 0 0 1 239.042.024Z" stroke="#353642" stroke-width="4.13" stroke-miterlimit="10"/><path d="m680.04 234.002 3.91 7s-5.72 12.72 9.61 14.92c15.33 2.2 35.51-12.87 36.06-22.82 23.55 9.1 36 32 36.22 56.52.4 60.7-77.7 97.5-129.89 92-26.23-2.75-51-14.32-71.68-30.65-2.76-2.14-5.41-4.39-8-6.71a157.176 157.176 0 0 1-14.7-15.35 234.181 234.181 0 0 1-6.88-8.59" stroke="#000" stroke-width="3.77" stroke-miterlimit="10"/><path d="m713.511 205.52 15.02 28.65M533.04 94.21h-.13c-4.84.82-10.66 5.13-13.68 10.711-3.46 6.31-3.86 14-4.6 17.26-.08.37-.16.73-.2 1.06a6.478 6.478 0 0 0-.2.85l-.13.49a6.599 6.599 0 0 1-12.9-2.52l.28-2.28c.09-.82.21-1.59.37-2.36.324-2.234.815-4.44 1.47-6.6.088-.339.194-.673.32-1a9.538 9.538 0 0 1 .49-1.51c.096-.263.206-.52.33-.77M545.321 139.762c-3.027 2.9-5.92 4.346-8.68 4.34a7.771 7.771 0 0 1-3.38-.77 8.272 8.272 0 0 1-2.63-1.87c-2.5-2.57-2.4-6.88-1.21-9.77a18.675 18.675 0 0 1 3.45-5.09c.45-.51.89-1 1.28-1.53a14.559 14.559 0 0 0 2.92-5.15c0-.11 0-.21.05-.32" stroke="#000" stroke-width="4.13" stroke-miterlimit="10"/><path d="M521.581 91.41c1.87.35 3.67.78 5.51 1.2 1.84.42 3.88 1 5.8 1.6a37.09 37.09 0 0 1 12.15 6.21c9.86 7.29 11.93 19.72 4.82 28.89M514.631 122.178c0 .09 0 .17-.05.28-.025.336-.072.67-.14 1l-.22 2.28a6.597 6.597 0 0 0 .633 3.589 6.588 6.588 0 0 0 9.447 2.671 6.397 6.397 0 0 0 1.904-1.814 6.39 6.39 0 0 0 1.016-2.426c.19-.85.35-1.77.57-2.64.8-3.38 1.1-6.4 3.62-9a7.909 7.909 0 0 1 2.49-1.74c.235-.1.48-.178.73-.23M487.901 116.202v-.26a39.307 39.307 0 0 1 3.38-12.5 25.834 25.834 0 0 1 4.45-6.75 18.993 18.993 0 0 1 11-6.12c1.23-.18 2.44-.3 3.68-.36 3.738-.053 7.469.35 11.11 1.2-3 .23-8.14 3.44-11.85 7.48a20.833 20.833 0 0 0-3.68 5.19c-.47 1-1 2.1-1.37 3.16-.38.86-.71 1.73-1 2.58-.87 2.46-1.62 4.89-2.19 7.13-.26 1-.5 2-.69 2.9a6.906 6.906 0 0 1-2.563 4.199 6.905 6.905 0 0 1-4.707 1.431 6.579 6.579 0 0 1-5.78-7.23l.2-2.05" stroke="#000" stroke-width="4.13" stroke-miterlimit="10"/><path d="M480.041 291.309c-1.7-3.41-2.8-7.15-1.16-10.41 3.71-7.4 15.64-3.48 22.62-8 6-3.85 5.39-8.42 8.67-14.12 3.83-6.67 10.73-4 16-.68 6.73 4.21 21.43 19 45 33.57a191.718 191.718 0 0 1 21 15.11c18.53 15.27 64.69 41.73 104.82-29.45M535.661 321.508c-3.29-3.35-6.87-6.89-11.49-7.73-4.93-.91-9.85 1.42-14.84 1.66-12.29.56-21.41-10.89-27.74-21.44-.52-.85-1-1.76-1.51-2.67" stroke="#000" stroke-width="3.84" stroke-miterlimit="10"/><path d="M506.341 305.18s-11.75 6.31-16.75-.18M482.621 295.77s9.55 6.5 16.25 1.08M478.19 287.18s8.31 5.09 11.88 1.44" stroke="#000" stroke-width="3.84" stroke-miterlimit="10"/><path d="M211.73 414h201-201Z" fill="#353642"/><path d="M211.73 414h201" stroke="#000" stroke-width="4.65" stroke-miterlimit="10"/><path d="M211.73 445h201-201Z" fill="#353642"/><path d="M211.73 445h201" stroke="#000" stroke-width="4.65" stroke-miterlimit="10"/><path d="M211.73 476h201-201Z" fill="#353642"/><path d="M211.73 476h201" stroke="#000" stroke-width="4.65" stroke-miterlimit="10"/><path d="M211.73 507h201-201Z" fill="#353642"/><path d="M211.73 507h201" stroke="#000" stroke-width="4.65" stroke-miterlimit="10"/><path d="M211.73 538h201-201Z" fill="#353642"/><path d="M211.73 538h201" stroke="#000" stroke-width="4.65" stroke-miterlimit="10"/><path d="M211.73 720h201-201Z" fill="#353642"/><path d="M211.73 720h201" stroke="#353642" stroke-width="4.65" stroke-miterlimit="10"/><path d="M211.73 747h201-201Z" fill="#353642"/><path d="M211.73 747h201" stroke="#353642" stroke-width="4.65" stroke-miterlimit="10"/><path d="M315.273 588a46.141 46.141 0 0 0-25.846 7.901c-7.652 5.158-13.618 12.496-17.145 21.084a47.47 47.47 0 0 0-2.663 27.158 47.162 47.162 0 0 0 12.716 24.075 46.36 46.36 0 0 0 23.808 12.876 46.048 46.048 0 0 0 26.874-2.668 46.619 46.619 0 0 0 20.874-17.311A47.347 47.347 0 0 0 361.73 635a47.412 47.412 0 0 0-3.529-17.979 46.987 46.987 0 0 0-10.07-15.245 46.427 46.427 0 0 0-15.072-10.192A46.033 46.033 0 0 0 315.273 588Zm0 82.717a6.76 6.76 0 0 1-4.807-2.013 6.909 6.909 0 0 1-1.992-4.859c0-1.822.716-3.572 1.992-4.859a6.756 6.756 0 0 1 4.807-2.013 6.76 6.76 0 0 1 4.807 2.013 6.904 6.904 0 0 1 1.992 4.859 6.909 6.909 0 0 1-1.992 4.859 6.764 6.764 0 0 1-4.807 2.013Zm8.54-52.854c-1.427 10.202-2.644 20.912-5.644 30.796a3.326 3.326 0 0 1-1.213 1.302 3.269 3.269 0 0 1-3.408 0 3.326 3.326 0 0 1-1.213-1.302 173.191 173.191 0 0 1-4.868-22.694c-.944-5.557-4.197-14.613-1.07-20.001 2.707-4.857 10.366-5.429 14.688-2.905 5.519 2.99 3.379 9.586 2.728 14.719v.085Z" fill="#F56565"/><path d="M314.731 302c7.732 0 13.999-6.267 13.999-14 0-7.731-6.267-14-13.999-14-7.733 0-14.001 6.269-14.001 14 0 7.733 6.268 14 14.001 14ZM275.73 352c0-10.609 4.163-20.784 11.57-28.284 7.408-7.503 17.455-11.716 27.931-11.716 10.475 0 20.522 4.213 27.93 11.716 7.409 7.5 11.569 17.675 11.569 28.284h-79Z" fill="#353642"/><path d="M129.698 82.37C106.787 83.54 87.825 101.902 86 124.75a46.072 46.072 0 0 0 12.04 35.157 45.364 45.364 0 0 0 11.061 8.873 20.173 20.173 0 0 1 3.042 2.149 44.402 44.402 0 0 0 39.89.063 14.897 14.897 0 0 1 2.979-2.149 47.166 47.166 0 0 0 11.511-9.244c.085-.119.177-.233.277-.34a46.296 46.296 0 0 0-11.102-70.487 46.295 46.295 0 0 0-25.992-6.401h-.008Zm28.68 72.378a.798.798 0 0 0-.214.245 36.65 36.65 0 0 1-8.904 7.111 10.928 10.928 0 0 0-2.275 1.659 34.371 34.371 0 0 1-30.765 0 16.864 16.864 0 0 0-2.37-1.691 35.671 35.671 0 1 1 44.52-7.308l.008-.016Z" fill="#3FBDF1"/><path d="M152.018 170.999a17.531 17.531 0 0 0-5.752 13.044v2.117c0 7.395-5.357 14.023-12.641 14.766a14.178 14.178 0 0 1-14.382-8.307 14.183 14.183 0 0 1-1.238-5.74v-2.836a17.697 17.697 0 0 0-5.83-13.1 44.476 44.476 0 0 0 39.874.056h-.031Z" fill="#353642"/><path d="M152.018 170.999a17.531 17.531 0 0 0-5.752 13.044v2.117c0 7.395-5.357 14.023-12.641 14.766a14.178 14.178 0 0 1-14.382-8.307 14.183 14.183 0 0 1-1.238-5.74v-2.836a17.697 17.697 0 0 0-5.83-13.1 44.476 44.476 0 0 0 39.874.056h-.031Z" stroke="#000" stroke-width="5.5" stroke-miterlimit="10"/><path d="M178.398 128.597a46.073 46.073 0 0 1-11.614 30.678 3.244 3.244 0 0 0-.261.324 47.078 47.078 0 0 1-11.535 9.252 15.725 15.725 0 0 0-2.97 2.149 44.464 44.464 0 0 1-39.875-.055 19.38 19.38 0 0 0-3.049-2.173A46.35 46.35 0 0 1 86 124.758a46.276 46.276 0 0 1 48.045-42.512 46.276 46.276 0 0 1 44.353 46.351Z" stroke="#000" stroke-width="5.5" stroke-miterlimit="10"/><path d="m119.04 175.693-10.602-35.142-2.655-9.954a1.36 1.36 0 0 1 2.536-.68c2.37 4.187 6.115 9.441 9.844 9.307 6.187-.221 1.107-19.001-3.95-17.034-5.056 1.968 4.638 14.379 14.624 15.928 9.987 1.548 7.253-15.24 0-15.904-7.253-.664-2.251 13.478 10.785 15.904 13.036 2.425 10.602-11.93 7.071-14.798-3.532-2.868-2.434 13.692 5.751 16.346 2.592.846 4.654-.963 5.665-3.215.585-1.312.284-7.948-.917-5.902-2.449 4.195-2.931 9.433-4.132 14.063-2.551 9.797-6.454 19.175-8.69 29.059" stroke="#000" stroke-width="5.5" stroke-miterlimit="10"/><path d="M132.084 65.834 131.626 38M79 91.724 59.73 71.633M185.366 92.972 205.062 73.3" stroke="#000" stroke-width="7.34" stroke-miterlimit="10"/></svg>