<svg width="773" height="868" fill="none" xmlns="http://www.w3.org/2000/svg">
  <path d="M394.334 176H173.979c-29.948 0-54.249 26.15-54.249 58.329v510.215c0 32.243 24.301 58.456 54.249 58.456h220.355c30.011 0 54.396-26.213 54.396-58.456V234.329c0-32.179-24.385-58.329-54.396-58.329Zm38.788 570.766a40.618 40.618 0 0 1-40.48 40.472H175.819a40.683 40.683 0 0 1-28.624-11.9 40.712 40.712 0 0 1-11.941-28.615V232.235a40.717 40.717 0 0 1 11.941-28.617 40.682 40.682 0 0 1 28.624-11.899h216.823a40.604 40.604 0 0 1 28.594 11.906 40.627 40.627 0 0 1 11.886 28.61v514.531Z" fill="#353642"/>
  <path d="M485.24 123.942a38.9 38.9 0 0 1 20.65-6.21c1.27 0 2.51.07 3.73.18-.52-2.18-1.17-4.74-2-7.52a18.905 18.905 0 0 1-6.671-5.586 18.9 18.9 0 0 1-3.459-7.984c-.941.163-1.895.247-2.85.25a17.56 17.56 0 0 1-9.6-2.82 18.104 18.104 0 0 1-2.07-.58c-.895.158-1.801.242-2.71.25a17.58 17.58 0 0 1-12.38-5l-8.67 3s22.24 11.22 26.03 32.02Z" fill="#3FBDF1"/>
  <path d="M487.83 775.21a60.17 60.17 0 0 1-60.14 60.15h-286.3a60.168 60.168 0 0 1-60.15-60.15V150.46a60.154 60.154 0 0 1 37.122-55.614 60.139 60.139 0 0 1 23.028-4.586h38.26a25.994 25.994 0 0 1 18.36 7.6 25.625 25.625 0 0 1 7.52 16.65c.056.521.083 1.045.08 1.57v1.33a27.15 27.15 0 0 0 2.9 10.95c.05.08.08.19.13.27a24.878 24.878 0 0 0 22.25 13.57h106.57a25.934 25.934 0 0 0 18.39-7.61 24.777 24.777 0 0 0 4.57-6.29.378.378 0 0 0 .11-.16 25.003 25.003 0 0 0 2.87-10.78v-1c.08-14.31 11-26.13 25.33-26.13h32.31l34-.42c.69-6.5 3.46-13.34 6.32-19.38a41.02 41.02 0 0 1 3.37-6H143.84a78.868 78.868 0 0 0-55.787 23.103A78.889 78.889 0 0 0 64.95 143.32v645.79a78.861 78.861 0 0 0 23.101 55.789A78.87 78.87 0 0 0 143.84 868h290.1a78.898 78.898 0 0 0 72.894-48.698 78.892 78.892 0 0 0 6.006-30.192v-44.47l-25 14.25-.01 16.32Z" fill="#3FBDF1"/>
  <path d="M496.551 280.172c-3-3.09-5.9 1.71-8.72-1.57v237.63a158.034 158.034 0 0 1 6.51-19.07c.58-1.36 1.16-2.73 1.76-4.08 1.27-2.79 2.6-5.54 4-8.27.38-.78.77-1.52 1.18-2.26.41-.74.91-1.69 1.38-2.49.8-1.46 1.66-2.92 2.54-4.35.6-1.08 1.27-2.12 1.93-3.17.49-.83 1-1.63 1.54-2.4.58-.94 1.21-1.87 1.82-2.78.75-1.13 1.54-2.26 2.32-3.37v-169.27c-3-2.34-6-4.8-8.82-7.33-2.57-2.32-5.05-4.72-7.44-7.22ZM510.45 115c-3.46 4.36-7.75.7-13.33.7-5.08 0-8 8.22-11.22 4.91.18.44-1.63 7-1.48 7.44.49 1.32.93 2.7 1.32 4.08v.05c.5 1.77.88 3.53 1.21 5.35.08.41.17.86.22 1.3.14.93.28 1.9.36 2.86.109.89.172 1.784.19 2.68.09 1 .11 2.09.11 3.17v70a8.334 8.334 0 0 1 2 2.45c4 7.3 7.83 1.83 12.11 9 2.28 3.7 7 6.59 9.42 3.91.89-1 1.44-5.28 1.44-6.88v-84.58a81.698 81.698 0 0 0-.89-12c-.18-1.51-1.14-12.91-1.46-14.44ZM205.641 114.711a24.397 24.397 0 0 1 2.9 10.94 27.132 27.132 0 0 1-2.9-10.94ZM363.4 114.648a25.01 25.01 0 0 1-2.87 10.78 26.913 26.913 0 0 1 2.87-10.78Z" fill="#3FBDF1"/>
  <path d="M746.23 419.759c-95.54 29.83-144.93-43.23-144.93-43.23 3.61-5.35-1.85-15.41-1.85-15.41l-3.32-17c-42.21-2.07-80.4-43.21-80.4-43.21 54.61-9.68 31.07-42.39 31.07-42.39l37.65 29.48 4.08-.36c.5-51 32.61-74.82 42.67-82.89 10.06-8.07 11.78-.06 11.78-.06s-4.42 16.32 14.44 18.58c18.86 2.26 32.67-15.41 32.67-15.41 6.47-14.5 13.92-5.51 13.92-5.51 32.33 17.2 38.18 59.76 45.12 89.5 4.79 20.38 13.91 64.3 20 85.7a34.303 34.303 0 0 1-1.21 22.45 34.544 34.544 0 0 1-21.69 19.76Z" fill="#353642"/>
  <path d="M746.23 419.759c-95.54 29.83-144.93-43.23-144.93-43.23 3.61-5.35-1.85-15.41-1.85-15.41l-3.32-17c-42.21-2.07-80.4-43.21-80.4-43.21 36.18-18.09 31.07-42.39 31.07-42.39l37.65 29.48 4.08-.36c.5-51 32.61-74.82 42.67-82.89 10.06-8.07 11.78-.06 11.78-.06s-4.42 16.32 14.44 18.58c18.86 2.26 32.67-15.41 32.67-15.41 6.47-14.5 13.92-5.51 13.92-5.51 32.33 17.2 38.18 59.76 45.12 89.5 4.79 20.38 13.91 64.3 20 85.7a34.303 34.303 0 0 1-1.21 22.45 34.544 34.544 0 0 1-21.69 19.76Z" fill="#F56565"/>
  <path d="M633.621 162.222c5.97 0 10.81-4.84 10.81-10.81 0-5.971-4.84-10.81-10.81-10.81-5.97 0-10.81 4.839-10.81 10.81 0 5.97 4.84 10.81 10.81 10.81Z" fill="#D7E8F0"/>
  <path d="M648.35 173.18c-.94 6.92-6.81 11.44-12.93 10.44" stroke="#000" stroke-width="4.13" stroke-miterlimit="10"/>
  <path d="M575.891 112.899a22.99 22.99 0 0 0 7.086 12.186 22.99 22.99 0 0 0 12.864 5.764 12.19 12.19 0 0 1 2.62-5.21c5.46-6.21 7.53 5.67 24.81-2.48 24-11.33 32.83-4.39 32.83-4.39.78.61.58 6.07.67 7 .52 5.65 1 11.28 1.59 16.93.34 3.44.67 6.86 1 10.28.335-.57.702-1.121 1.1-1.65 2.32-7.61 8.77-16.52 17-12.46a11.844 11.844 0 0 1 4.22 3.61c5.37 7.36 1 14.28-4.83 19.35a29.983 29.983 0 0 1-4.91 4.22c.91 2 4.64 9.86 4.64 9.89.38.8 14.25-14.28 15.29-15.93a38.756 38.756 0 0 0 2.65-12.74c.58-17.94-6.31-39-20.65-49.56-3.55-2.62-4.79-5.1-5-8.57a.927.927 0 0 0-.644-.83.934.934 0 0 0-1.006.3c-4.66 5.16-15.93 4.41-15.93 4.41-39-10.58-52.46 6.56-60.4 9.49a14.863 14.863 0 0 1-10 0 5.995 5.995 0 0 1-4.19 4.6l.17 1.82a6.06 6.06 0 0 1-.98 3.97Z" fill="#3FBDF1"/>
  <path d="M659.571 186.389c-2.57 2-9.75 7.76-12.62 9.47a42.646 42.646 0 0 1-6.61 3.25c-17.26 6.51-33.44-8.29-39.37-23.1-4.88-12.21-6-25.85-5.65-38.89.06-1.35.11-2.73.22-4.11a.75.75 0 0 1 0-.25c.053-.629.146-1.254.28-1.87a12.074 12.074 0 0 1 2.62-5.21c5.45-6.2 7.52 5.68 24.8-2.48 24-11.33 32.84-4.39 32.84-4.39.77.61.57 6.07.66 7 .52 5.66 1 11.28 1.6 16.93.33 3.45.66 6.86 1 10.28.08.94.17 1.85.25 2.78.122-1.513.407-3.009.85-4.46 2.32-7.61 8.77-16.51 17-12.46a11.844 11.844 0 0 1 4.22 3.61c5.37 7.36 1 14.28-4.83 19.35a43.969 43.969 0 0 1-4.68 3.5l-.44.28.22.44c.91 2 4.63 9.87 4.63 9.89.38.8 14.25-14.27 15.3-15.93a42.741 42.741 0 0 0 6.61-18.52c.09-.83.14-1.63.17-2.46.58-17.94-6.31-39-20.65-49.56-3.56-2.62-4.8-5.1-5-8.57a.927.927 0 0 0-.644-.829.918.918 0 0 0-.549-.006.921.921 0 0 0-.457.305c-4.66 5.16-15.94 4.41-15.94 4.41-38.95-10.58-52.46 6.56-60.39 9.49-7.93 2.93-14.89-2.48-14.89-2.48l.83 8.87a6.081 6.081 0 0 1-.11 1.82 5.997 5.997 0 0 1-4.19 4.6 4.234 4.234 0 0 1-1.24.25h-.31a31.06 31.06 0 0 0 .72 5.49 22.998 22.998 0 0 0 20 17.95" stroke="#000" stroke-width="4.13" stroke-miterlimit="10"/>
  <path d="M601.31 161.159c5.97 0 10.81-4.84 10.81-10.81 0-5.97-4.84-10.81-10.81-10.81-5.97 0-10.81 4.84-10.81 10.81 0 5.97 4.84 10.81 10.81 10.81Z" fill="#D7E8F0"/>
  <path d="M638.131 155.45a4.435 4.435 0 0 1-2.72 4.123 4.437 4.437 0 0 1-6.072-3.216 4.438 4.438 0 0 1 4.352-5.317 3.8 3.8 0 0 1 1.27.19 2.233 2.233 0 0 0-.69 1.57 2.148 2.148 0 0 0 2.15 2.13 2.084 2.084 0 0 0 1.52-.67c.13.383.194.785.19 1.19ZM606.7 154a4.422 4.422 0 0 1-7.545 3.116 4.42 4.42 0 0 1 4.795-7.216 2.251 2.251 0 0 0-1 1.82 2.124 2.124 0 0 0 .634 1.507 2.132 2.132 0 0 0 1.516.613 2.047 2.047 0 0 0 1.49-.61c.067.252.104.51.11.77Z" fill="#000"/>
  <path d="M617.67 151.238s-2.769 12.31-3.099 13.55c-1 4 6.939 2.76 6.939 2.76M627.831 128.001s13.05-4.89 20.31 4.91M584.45 137.791s6.72-12.21 18.6-9.5M633.621 164.181c7.053 0 12.77-5.718 12.77-12.77 0-7.053-5.717-12.77-12.77-12.77s-12.77 5.717-12.77 12.77c0 7.052 5.717 12.77 12.77 12.77ZM601.311 163.118c7.053 0 12.77-5.717 12.77-12.77s-5.717-12.77-12.77-12.77-12.77 5.717-12.77 12.77 5.717 12.77 12.77 12.77Z" stroke="#000" stroke-width="4.13" stroke-miterlimit="10"/>
  <path d="M601.301 141.669h.29a8.673 8.673 0 0 1 8.53 8.81 8.671 8.671 0 0 1-8.81 8.53h-.27a8.673 8.673 0 0 1-8.53-8.81 8.673 8.673 0 0 1 8.81-8.53h-.02Zm.02-2.07a10.74 10.74 0 0 0-7.893 18.211 10.74 10.74 0 0 0 7.543 3.269h.36a10.737 10.737 0 0 0 10.915-10.565 10.743 10.743 0 0 0-10.565-10.915h-.36Z" fill="#fff"/>
  <path d="m620.85 150.99-6.78-.22" stroke="#000" stroke-width="4.13" stroke-miterlimit="10"/>
  <path d="m630.431 608.491-13.56 83.06-14.69-2.2a12.263 12.263 0 0 1-10.23-13.84l1.09-8.91 10-73.3c16.28 9.54 27.39 15.19 27.39 15.19ZM563.341 715.84l-50.5 29-25 14.39-7.66 4.41a2.157 2.157 0 0 0 0-.44l-6 3.42-7.72-14.83a14.722 14.722 0 0 1 5.99-19.79l87.5-47.91.08.8 3.31 30.95Z" fill="#3FBDF1"/>
  <path d="M489.491 510.58c-.55-.74-1.1-1.46-1.66-2.09-3.17-3.81-6.28-6.37-8.38-10.7a18 18 0 0 1 4.33-21.2 17.463 17.463 0 0 1 4-2.59M595.98 643.811l-2.94 22.77-1.13 8.91a12.263 12.263 0 0 0 10.23 13.84l14.69 2.2 13.56-83.06s-11.11-5.65-27.37-15.21c-11.63-6.84-26-15.69-40.74-25.89" stroke="#000" stroke-width="4.13" stroke-miterlimit="10"/>
  <path d="M593.48 663.481s-15.86-8.55-36-20.86" stroke="#000" stroke-width="4.13" stroke-miterlimit="10"/>
  <g opacity=".68" fill="#D7E8F0">
    <path opacity=".68" d="M487.83 279.869v236.36c-4.38 16.18-6.47 33-7.58 49.92v-285.68c2.46 3.2 4.99-3.66 7.58-.6ZM487.83 758.891v13.59a60.166 60.166 0 0 1-60.14 60.15h-286.3a60.17 60.17 0 0 1-60.15-60.15v-624.75a60.17 60.17 0 0 1 17.603-42.562 60.166 60.166 0 0 1 42.547-17.638h38.26c1.756.005 3.507.179 5.23.52 1.152.242 2.288.556 3.4.94.49.19 1 .38 1.46.58.78.324 1.541.69 2.28 1.1.889.48 1.747 1.014 2.57 1.6.55.38 1.07.77 1.57 1.18.5.41 1.27 1.11 1.85 1.68l4 5.16c.367.615.701 1.25 1 1.9l1.46 3.69c.2.67.39 1.33.53 2l.36 2.09c.05.28.08.58.11.86.01.137.01.274 0 .41.06.66.11 1.3.11 2v1.46a.558.558 0 0 0-.11-.17 23.575 23.575 0 0 0-4.3-5.79 25 25 0 0 0-17.67-7.33h-36.79a57.93 57.93 0 0 0-40.965 17.004 57.908 57.908 0 0 0-16.925 40.996v601.44a57.92 57.92 0 0 0 57.89 57.92h275.66a57.877 57.877 0 0 0 57.8-55.08 2.157 2.157 0 0 0 0-.44l7.66-4.36Z"/>
    <path opacity=".68" d="M360.53 125.43v1.13a24.997 24.997 0 0 1-25 24.86H232.9c-13.83 0-24.28-11.3-24.34-25.14v-.63a24.891 24.891 0 0 0 22.38 13.84h106.52a25.934 25.934 0 0 0 18.39-7.61 25.553 25.553 0 0 0 4.68-6.45Z"/>
  </g>
  <path d="M512.841 381.929c35.57-7.23 70.1-14.7 88.46-14.45M479.211 587.998c-53.92-43.45-102.85-99.18-81.82-147.73 12.65-29.27 50.09-45.22 90.44-53.87" stroke="#000" stroke-width="4.13" stroke-miterlimit="10"/>
  <path d="M596.39 346.059c.88 3.17 4.91 21.43 5.9 24.73 3.66 11.91-42.92 43.42-50.81 50.5-14.16 12.63-27.56 26.85-38.64 42.7a172.594 172.594 0 0 0-18.5 33.17 158.034 158.034 0 0 0-6.51 19.07c-4.38 16.18-6.47 33-7.58 49.92-.88 12.82-1.21 25.69-1.57 38.26-.74 24.12-.36 48.38 1.22 72.42.11 1.52.22 3 .35 4.52a261.4 261.4 0 0 0 7.23 42.31v.09M589.5 289.72c1.51-46.83 22.77-71.83 41.7-85a60.61 60.61 0 0 1 11.78-6.29M694.94 198.121c.88.33 1.73.69 2.59 1.05l.94.41a60.208 60.208 0 0 1 6.06 3.06 57.338 57.338 0 0 1 17.37 15.27c.181.176.33.383.44.61.82 1.16 1.62 2.34 2.4 3.56 6.92 11 13.37 25.85 18.3 43a238.72 238.72 0 0 1 6.09 26.77" stroke="#000" stroke-width="4.13" stroke-miterlimit="10"/>
  <path d="M749.131 291.84c4.79 20.38 13.92 64.31 20 85.7a34.3 34.3 0 0 1-1.21 22.46 34.531 34.531 0 0 1-8.643 12.297 34.53 34.53 0 0 1-13.047 7.463l-18.09 4.38a8.416 8.416 0 0 0-4.73 3.14 121.719 121.719 0 0 1-13.61 15.16c-78.26 73.68-172.43-2.59-149.85 241.67l.08.8c.913 9.78 2.017 20.09 3.31 30.93l-50.5 28.8-25 14.25-7.63 4.36-6 3.42-7.72-14.83a14.722 14.722 0 0 1 5.96-19.84l7.8-4.33 7.23-4 .35-.19 25-13.84 5.32-3" stroke="#000" stroke-width="4.13" stroke-miterlimit="10"/>
  <path d="M512.851 744.641v41.73a78.921 78.921 0 0 1-78.92 78.91h-298.79a78.92 78.92 0 0 1-55.804-23.109 78.895 78.895 0 0 1-23.116-55.801v-650.25A78.896 78.896 0 0 1 79.337 80.32a78.893 78.893 0 0 1 55.804-23.11h335.09M512.841 136.119a79.568 79.568 0 0 0-1.63-16.12s-1.46-8.83-2.86-11.28M512.841 463.962V296.422M512.841 136.129v101.22M593.041 261.999v-.07a117.663 117.663 0 0 1-24-14.41 147.813 147.813 0 0 1-56.35-97.35c-.133-.953-.253-1.913-.36-2.88M487.851 493.229v-213.44" stroke="#000" stroke-width="4.13" stroke-miterlimit="10"/>
  <path d="M487.851 219.822v-72.08c0-13.13-1.15-28.69-8.22-38.6 0 0-17.15-21.63-34.58-21.63h-55.62" stroke="#000" stroke-width="4.13" stroke-miterlimit="10"/>
  <path d="M411.841 87.512h-22.41a26 26 0 0 0-26 26 25.997 25.997 0 0 1-26 26h-105.82a26 26 0 0 1-26-26 25.999 25.999 0 0 0-26-26h-38.22a60.207 60.207 0 0 0-60.17 60.23v624.74a60.19 60.19 0 0 0 60.17 60.16h286.29a60.19 60.19 0 0 0 60.17-60.16v-13.58M506.69 60.922c10.89 4.66 21.06 20.07 26 30.38 9.16 19.13 17.15 33.77 28 52 9.29 15.63 17.81 32.56 32.42 44a48.79 48.79 0 0 0 27 10.47" stroke="#000" stroke-width="4.13" stroke-miterlimit="10"/>
  <path d="M211 101.376c-.008 19.088-5.352 37.818-15.463 54.2-10.111 16.381-24.613 29.802-41.964 38.837-17.351 9.035-36.903 13.348-56.58 12.477-19.676-.87-38.742-6.889-55.172-17.417-21.292-17.365-34.926-41.964-38.106-68.756-3.18-26.793 4.332-53.748 20.999-75.346C41.381 23.774 65.94 9.173 93.358 4.558c27.419-4.614 55.62 1.108 78.824 15.994 12.172 9.905 21.955 22.275 28.661 36.239 6.707 13.963 10.173 29.182 10.157 44.585Z" fill="#FFFAF0"/>
  <path d="M211 105.01c-.003 23.223-8.085 45.751-22.911 63.858-14.827 18.107-35.51 30.71-58.63 35.725-23.119 5.015-47.292 2.142-68.522-8.143-21.229-10.286-38.244-27.369-48.232-48.425C2.717 126.969.355 103.2 6.007 80.648c5.654-22.552 18.984-42.536 37.788-56.65C62.6 9.884 85.751 2.487 109.423 3.028c23.673.54 46.448 8.988 64.561 23.946 11.596 9.575 20.918 21.52 27.313 35A100.342 100.342 0 0 1 211 105.01Z" stroke="#353642" stroke-width="4.13" stroke-miterlimit="10"/>
  <path d="m649.04 199.002 3.91 7s-5.72 12.72 9.61 14.92c15.33 2.2 35.51-12.87 36.06-22.82 23.55 9.1 36 32 36.22 56.52.4 60.7-77.7 97.5-129.89 92-26.23-2.75-51-14.32-71.68-30.65-2.76-2.14-5.41-4.39-8-6.71a157.176 157.176 0 0 1-14.7-15.35 234.181 234.181 0 0 1-6.88-8.59" stroke="#000" stroke-width="3.77" stroke-miterlimit="10"/>
  <path d="m682.511 170.52 15.02 28.65M502.04 59.21h-.13c-4.84.82-10.66 5.13-13.68 10.71-3.46 6.31-3.86 14-4.6 17.26-.08.37-.16.73-.2 1.06a6.478 6.478 0 0 0-.2.85l-.13.49a6.599 6.599 0 0 1-12.9-2.52l.28-2.28c.09-.82.21-1.59.37-2.36.324-2.233.815-4.44 1.47-6.6.088-.338.194-.672.32-1a9.538 9.538 0 0 1 .49-1.51c.096-.262.206-.52.33-.77M514.321 104.762c-3.027 2.9-5.92 4.346-8.68 4.34a7.771 7.771 0 0 1-3.38-.77 8.272 8.272 0 0 1-2.63-1.87c-2.5-2.57-2.4-6.88-1.21-9.77a18.674 18.674 0 0 1 3.45-5.09c.45-.51.89-1 1.28-1.53a14.559 14.559 0 0 0 2.92-5.15c0-.11 0-.21.05-.32" stroke="#000" stroke-width="4.13" stroke-miterlimit="10"/>
  <path d="M490.581 56.41c1.87.35 3.67.78 5.51 1.2 1.84.42 3.88 1 5.8 1.6a37.086 37.086 0 0 1 12.15 6.21c9.86 7.29 11.93 19.72 4.82 28.89M483.631 87.178c0 .09 0 .17-.05.28-.025.336-.072.67-.14 1l-.22 2.28a6.597 6.597 0 0 0 .633 3.589 6.588 6.588 0 0 0 9.447 2.671 6.397 6.397 0 0 0 1.904-1.814 6.39 6.39 0 0 0 1.016-2.426c.19-.85.35-1.77.57-2.64.8-3.38 1.1-6.4 3.62-9a7.909 7.909 0 0 1 2.49-1.74c.235-.1.48-.178.73-.23M456.901 81.202v-.26a39.307 39.307 0 0 1 3.38-12.5 25.832 25.832 0 0 1 4.45-6.75 18.993 18.993 0 0 1 11-6.12c1.23-.18 2.44-.3 3.68-.36 3.738-.053 7.469.35 11.11 1.2-3 .23-8.14 3.44-11.85 7.48a20.823 20.823 0 0 0-3.68 5.19c-.47 1-1 2.1-1.37 3.16-.38.86-.71 1.73-1 2.58-.87 2.46-1.62 4.89-2.19 7.13-.26 1-.5 2-.69 2.9a6.906 6.906 0 0 1-2.563 4.2 6.905 6.905 0 0 1-4.707 1.43 6.579 6.579 0 0 1-5.78-7.23l.2-2.05" stroke="#000" stroke-width="4.13" stroke-miterlimit="10"/>
  <path d="M449.041 256.309c-1.7-3.41-2.8-7.15-1.16-10.41 3.71-7.4 15.64-3.48 22.62-8 6-3.85 5.39-8.42 8.67-14.12 3.83-6.67 10.73-4 16-.68 6.73 4.21 21.43 19 45 33.57a191.718 191.718 0 0 1 21 15.11c18.53 15.27 64.69 41.73 104.82-29.45M504.661 286.508c-3.29-3.35-6.87-6.89-11.49-7.73-4.93-.91-9.85 1.42-14.84 1.66-12.29.56-21.41-10.89-27.74-21.44-.52-.85-1-1.76-1.51-2.67" stroke="#000" stroke-width="3.84" stroke-miterlimit="10"/>
  <path d="M475.341 270.18s-11.75 6.31-16.75-.18M451.621 260.77s9.55 6.5 16.25 1.08M447.19 252.18s8.31 5.09 11.88 1.44" stroke="#000" stroke-width="3.84" stroke-miterlimit="10"/>
  <path d="M180.73 379h201Z" fill="#353642"/>
  <path d="M180.73 379h201" stroke="#000" stroke-width="4.65" stroke-miterlimit="10"/>
  <path d="M180.73 410h201Z" fill="#353642"/>
  <path d="M180.73 410h201" stroke="#000" stroke-width="4.65" stroke-miterlimit="10"/>
  <path d="M180.73 441h201Z" fill="#353642"/>
  <path d="M180.73 441h201" stroke="#000" stroke-width="4.65" stroke-miterlimit="10"/>
  <path d="M180.73 472h201Z" fill="#353642"/>
  <path d="M180.73 472h201" stroke="#000" stroke-width="4.65" stroke-miterlimit="10"/>
  <path d="M180.73 503h201Z" fill="#353642"/>
  <path d="M180.73 503h201" stroke="#000" stroke-width="4.65" stroke-miterlimit="10"/>
  <path d="M180.73 685h201Z" fill="#353642"/>
  <path d="M180.73 685h201" stroke="#353642" stroke-width="4.65" stroke-miterlimit="10"/>
  <path d="M180.73 712h201Z" fill="#353642"/>
  <path d="M180.73 712h201" stroke="#353642" stroke-width="4.65" stroke-miterlimit="10"/>
  <path d="M284.273 553a46.141 46.141 0 0 0-25.846 7.901c-7.652 5.158-13.618 12.496-17.145 21.084a47.47 47.47 0 0 0-2.663 27.158 47.162 47.162 0 0 0 12.716 24.075 46.36 46.36 0 0 0 23.808 12.876 46.048 46.048 0 0 0 26.874-2.668 46.619 46.619 0 0 0 20.874-17.311A47.347 47.347 0 0 0 330.73 600a47.412 47.412 0 0 0-3.529-17.979 46.987 46.987 0 0 0-10.07-15.245 46.427 46.427 0 0 0-15.072-10.192A46.033 46.033 0 0 0 284.273 553Zm0 82.717a6.76 6.76 0 0 1-4.807-2.013 6.909 6.909 0 0 1-1.992-4.859c0-1.822.716-3.572 1.992-4.859a6.756 6.756 0 0 1 4.807-2.013 6.76 6.76 0 0 1 4.807 2.013 6.904 6.904 0 0 1 1.992 4.859 6.909 6.909 0 0 1-1.992 4.859 6.764 6.764 0 0 1-4.807 2.013Zm8.54-52.854c-1.427 10.202-2.644 20.912-5.644 30.796a3.319 3.319 0 0 1-1.213 1.302 3.269 3.269 0 0 1-3.408 0 3.319 3.319 0 0 1-1.213-1.302 173.191 173.191 0 0 1-4.868-22.694c-.944-5.557-4.197-14.613-1.07-20.001 2.707-4.857 10.366-5.429 14.688-2.905 5.519 2.99 3.379 9.586 2.728 14.719v.085Z" fill="#F56565"/>
  <path d="M283.731 267c7.732 0 13.999-6.267 13.999-14 0-7.731-6.267-14-13.999-14-7.733 0-14.001 6.269-14.001 14 0 7.733 6.268 14 14.001 14ZM244.73 317c0-10.609 4.163-20.784 11.57-28.284 7.408-7.503 17.455-11.716 27.931-11.716 10.475 0 20.522 4.213 27.93 11.716 7.409 7.5 11.569 17.675 11.569 28.284h-79Z" fill="#353642"/>
  <path d="M104.818 77.026c-17.296.897-31.61 14.977-32.987 32.499a35.854 35.854 0 0 0 1.75 14.453 35.457 35.457 0 0 0 7.339 12.509 34.346 34.346 0 0 0 8.35 6.804 15.345 15.345 0 0 1 2.296 1.648 33.093 33.093 0 0 0 15.05 3.653 33.077 33.077 0 0 0 15.063-3.605 11.29 11.29 0 0 1 2.248-1.648 35.7 35.7 0 0 0 8.69-7.089c.064-.091.134-.178.209-.26a35.758 35.758 0 0 0 8.43-18.657 36.01 36.01 0 0 0-3.144-20.277c-2.991-6.298-7.745-11.558-13.667-15.121a34.517 34.517 0 0 0-19.621-4.909h-.006Zm21.65 55.504a.62.62 0 0 0-.161.188 27.719 27.719 0 0 1-6.722 5.453 8.296 8.296 0 0 0-1.717 1.272 25.613 25.613 0 0 1-11.612 2.787c-4.031 0-8.008-.954-11.612-2.787a12.611 12.611 0 0 0-1.79-1.296 27.203 27.203 0 0 1-11-12.195 27.747 27.747 0 0 1-2.07-16.405 27.494 27.494 0 0 1 7.616-14.62 26.78 26.78 0 0 1 14.517-7.488 26.553 26.553 0 0 1 16.112 2.38 27.113 27.113 0 0 1 11.817 11.379 27.734 27.734 0 0 1 3.201 16.218 27.564 27.564 0 0 1-6.585 15.126l.006-.012Z" fill="#3FBDF1"/>
  <path d="M121.667 144.993a13.426 13.426 0 0 0-3.216 4.533 13.628 13.628 0 0 0-1.125 5.47v1.623c0 5.671-4.044 10.755-9.543 11.324a10.53 10.53 0 0 1-4.408-.479 10.655 10.655 0 0 1-3.839-2.252c-1.11-1.015-2-2.255-2.61-3.64a11.006 11.006 0 0 1-.934-4.401v-2.175a13.749 13.749 0 0 0-1.155-5.496 13.556 13.556 0 0 0-3.247-4.55 33.133 33.133 0 0 0 15.046 3.641 33.148 33.148 0 0 0 15.055-3.598h-.024Z" fill="#353642"/>
  <path d="M121.667 144.993a13.426 13.426 0 0 0-3.216 4.533 13.628 13.628 0 0 0-1.125 5.47v1.623c0 5.671-4.044 10.755-9.543 11.324a10.53 10.53 0 0 1-4.408-.479 10.655 10.655 0 0 1-3.839-2.252c-1.11-1.015-2-2.255-2.61-3.64a11.006 11.006 0 0 1-.934-4.401v-2.175a13.749 13.749 0 0 0-1.155-5.496 13.556 13.556 0 0 0-3.247-4.55 33.133 33.133 0 0 0 15.046 3.641 33.148 33.148 0 0 0 15.055-3.598h-.024Z" stroke="#000" stroke-width="5.5" stroke-miterlimit="10"/>
  <path d="M141.581 112.477c.018 8.669-3.102 17.042-8.767 23.526a2.395 2.395 0 0 0-.197.249 35.631 35.631 0 0 1-8.707 7.094 11.96 11.96 0 0 0-2.243 1.648 33.136 33.136 0 0 1-15.055 3.599 33.16 33.16 0 0 1-15.046-3.641 14.582 14.582 0 0 0-2.302-1.666 35.313 35.313 0 0 1-13.546-14.303 36.02 36.02 0 0 1-3.887-19.451c.726-9.142 4.909-17.643 11.67-23.721 6.763-6.079 15.578-9.26 24.599-8.88 9.021.381 17.547 4.296 23.789 10.922 6.242 6.627 9.715 15.452 9.692 24.624Z" stroke="#000" stroke-width="5.5" stroke-miterlimit="10"/>
  <path d="m96.773 148.593-8.004-26.949-2.004-7.634c0-.23.075-.453.212-.635a1.013 1.013 0 0 1 1.207-.328c.209.087.383.243.496.442 1.789 3.211 4.616 7.24 7.43 7.137 4.671-.17.836-14.571-2.981-13.063-3.817 1.509 3.5 11.027 11.039 12.215 7.539 1.187 5.476-11.688 0-12.196-5.475-.509-1.699 10.336 8.142 12.196 9.84 1.86 8.003-9.149 5.337-11.348-2.666-2.2-1.837 10.5 4.342 12.535 1.957.649 3.513-.739 4.277-2.466.441-1.005.214-6.095-.692-4.525-1.849 3.217-2.213 7.234-3.12 10.784-1.926 7.513-4.872 14.705-6.56 22.284" stroke="#000" stroke-width="5.5" stroke-miterlimit="10"/>
  <path d="M106.62 64.345 106.274 43M66.546 84.2 52 68.793M146.841 85.157 161.71 70.07" stroke="#000" stroke-width="7.34" stroke-miterlimit="10"/>
</svg>
