<svg width="673" height="492" fill="none" xmlns="http://www.w3.org/2000/svg">
  <path fill-rule="evenodd" clip-rule="evenodd" d="M171.889 453.981S11.521 423.939.651 384.291c-10.87-39.647 117.935-58.747 117.935-58.747s61.765-10.445 71.223-18.907c9.458-8.462 197.738-5.198 288.708-72.677 90.97-67.478 121.017-101.696 165.988-63.367 44.97 38.329 34.083 151.973-15.498 217.681-49.581 65.707-246.822 76.658-246.822 76.658l-210.296-10.951Z" fill="#4299E1"/>
  <path fill-rule="evenodd" clip-rule="evenodd" d="M462.673 412.75s-4.242 2.935-6.255-2.603a310.777 310.777 0 0 1-3.276-9.444s-4.328-4.345-6.588-4.345-9.666-5.119-8.906-9.142c.76-4.024 9.515-3.566 12.004-3.566 2.489 0 .603-6.12.603-7.978 0-1.858 2.922-17.637 9.871-15.276 6.949 2.362 10.718 6.513 7.95 13.71 7.244-.347 13.839-3.685 14.685 10.489-.579 5.208-.442 6.409 2.736 10.268 3.179 3.86 4.473 9.669 1.829 11.645-2.643 1.975-6.941 2.734-8.376 3.639-1.435.906-2.198 2.879-2.198 6.136 0 3.256-4.991-2.417-4.991-2.417l-4.686-4.999-4.402 3.883Z" fill="ivory"/>
  <path d="M403.569 232.045a4969.791 4969.791 0 0 1 12.049 154.744c.38 6.102.611 12.723-2.88 17.748-2.342 3.371-6.05 5.518-9.75 7.307-13.538 6.545-28.459 9.702-43.336 11.938a390.118 390.118 0 0 1-122.526-1.084c-8.003-1.348-16.122-3.004-23.178-7.004-7.056-4.001-12.984-10.754-14.041-18.78a1746.262 1746.262 0 0 1-14.751-201.593c-.074-4.883-.246-10.132-3.179-14.043-3.177-4.236-8.854-5.872-12.443-9.768-6.191-6.72-3.862-18.195 2.633-24.622 6.496-6.428 15.817-8.979 24.771-10.856a289.828 289.828 0 0 1 79.746-5.438c.787 2.145-2.448 3.348-4.738 3.351a468.183 468.183 0 0 0-74.818 6.111c-9.058 1.478-18.935 3.738-24.422 11.078 24.962 8.206 51.725 8.674 78.007 8.875 46.98.359 94.295.078 140.422-8.82 4.106-.792 8.559-1.868 11.105-5.178 2.547-3.309 1.347-9.438-2.808-9.922a609.58 609.58 0 0 0-107.178-2.97c-2.759.167-6.821-1.488-5.471-3.893a710.588 710.588 0 0 1 98.307 2.154c8.771.803 18.01 1.951 25.029 7.26 7.448 5.635 11.16 15.772 9.105 24.869-2.055 9.097-9.766 16.667-18.917 18.571" fill="#F0FFF4"/>
  <path fill-rule="evenodd" clip-rule="evenodd" d="M279.732 128.182c1.181-32.462 5.995-65.206.545-97.228-.599-3.517-1.329-7.043-2.739-10.32-2.382-5.536-6.723-10.204-12.069-12.979-1.641-.852-3.468-1.612-4.469-3.168-1.001-1.555-.496-4.19 1.329-4.487 7.479 1.197 13.578 7.043 16.952 13.83 3.373 6.787 4.435 14.463 5.21 22.003a360.233 360.233 0 0 1-.665 79.639c-1.077 8.988-2.457 18.354.541 26.894l-2.712-.649c-2.135-4.087-2.091-8.927-1.923-13.535Z" fill="#F56565"/>
  <path d="M194.784 453.623c-1.897 2.09-4.849 3.201-7.678 2.889-1.423-.157-2.19 1.919-1.375 3.079.815 1.16 2.405 1.481 3.837 1.525 1.431.043 2.936-.081 4.226.532l-14.518 6.548c-13.928 10.261 7.158 6.204 10.637 5.408-3.879 3.852-6.558 8.02-3.577 8.145-2.675 1.18 3.976-1.768 2.125.469-1.852 2.237-2.448 5.767-.53 7.949 3.211-.037 6.079-3.004 5.96-6.164a70.601 70.601 0 0 0 18.69 1.049c3.625-.28 6.385-4.264 5.485-7.733-.901-3.469-5.071-5.665-8.554-4.637a64.532 64.532 0 0 0 12.618-7.471l-3.174-4.76c-1.613-2.419-3.27-4.886-5.599-6.65-2.329-1.764-5.497-2.727-8.261-1.745-2.764.982-4.655 4.333-3.388 6.944-.863 1.063-2.744 1.073-3.617.018-.873-1.054-.486-2.867.745-3.485 1.1-.552 1.232-2.157.587-3.195-.644-1.038-1.799-1.64-2.899-2.194-2.944-1.481-6.723-2.903-9.309-.876a6.601 6.601 0 0 0 3.519.906l-5.002 2.942c-.588.541.602 1.209 1.404 1.142l7.648-.635Z" fill="#F56565"/>
  <path fill-rule="evenodd" clip-rule="evenodd" d="m187.137 454.26 7.647-.635c-1.897 2.09-4.849 3.201-7.677 2.889-1.424-.157-2.191 1.92-1.376 3.079.815 1.16 2.405 1.482 3.837 1.525 1.432.044 2.936-.081 4.226.532l-14.517 6.548c3.546.423 7.167.231 10.647-.565-3.88 3.852-11.921 1.716-14.716 6.392a35.829 35.829 0 0 0 16.563-1.974c-.03 1.863-2.241 2.871-4.117 3.122-1.875.25-4.041.32-5.216 1.78-.763.948-2.27.657-3.436.276-1.934-.632-3.937-1.304-5.411-2.689-1.474-1.386-2.256-3.705-1.249-5.45 2.209-3.829 10.035-1.564 11.355-5.772.33-1.053.065-2.187-.196-3.259-.607-2.494-1.191-5.061-.845-7.603.347-2.542 1.818-5.091 4.242-6.029 4.073-1.577 8.243 1.823 12.513 2.767 3.215.71 6.623-.004 9.836.718 4.623 1.04 8.016 4.81 11.079 8.376 1.388 1.617 2.826 3.33 3.241 5.408.415 2.077-.605 4.596-2.692 5.104-1.898.462-2.65 2.832-2.28 4.722.371 1.89 1.488 3.56 2.004 5.416.517 1.857.186 4.229-1.555 5.104-3.671 1.846-7.518 3.737-11.641 3.739-2.761.002-5.46-.853-8.22-.938-2.759-.085-5.872.881-7.035 3.347-1.169 2.48-5.304 1.921-6.834-.362-1.529-2.282-1.242-5.26-.896-7.973.101-.797.227-1.648.772-2.245.446-.489 1.104-.727 1.741-.923a26.366 26.366 0 0 1 8.832-1.138c-2.675 1.18-5.45 2.434-7.302 4.671-1.852 2.237-2.448 5.767-.53 7.95 3.211-.038 6.08-3.005 5.96-6.165a70.517 70.517 0 0 0 18.69 1.049c3.625-.28 6.385-4.264 5.485-7.733-.901-3.469-5.071-5.665-8.554-4.637a64.569 64.569 0 0 0 12.619-7.471l-3.175-4.76c-1.613-2.419-3.27-4.885-5.599-6.65-2.329-1.764-5.497-2.727-8.261-1.745-2.764.982-4.655 4.333-3.388 6.944-.863 1.063-2.744 1.073-3.617.019-.873-1.055-.486-2.867.745-3.486 1.1-.552 1.232-2.157.587-3.195-.644-1.037-1.799-1.64-2.899-2.193-2.944-1.482-6.723-2.904-9.309-.877a6.601 6.601 0 0 0 3.519.906l-5.002 2.942c-.588.541.602 1.209 1.405 1.142Z" fill="#F56565"/>
  <path fill-rule="evenodd" clip-rule="evenodd" d="M271.524 122.111c-.255-.987.117-2.172 1.026-2.642l.887 1.845-1.853 1.141-.06-.344Z" fill="#E7EAEE"/>
  <path d="M197.559 466.922a9.645 9.645 0 0 1-.65 5.817c2.272.236 4.575.202 6.838-.102-1.57 2.39-5.594 3.059-7.75 1.109-2.156-1.949-1.307-6.015 1.562-6.824Z" fill="#fff"/>
  <path fill-rule="evenodd" clip-rule="evenodd" d="M274.213 75.686a363.337 363.337 0 0 0-1.089 33.356c.029 2.178.104 4.452 1.234 6.367.333.564-.521 1.215-1.194 1.043-.673-.172-1.078-.788-1.38-1.367-4.094-7.836-1.507-17.062-1.691-25.75-.119-5.656-1.431-11.484.486-16.86.387-1.086 2.283-1.004 3.034-.093.751.911.69 2.165.6 3.304Z" fill="#F56565"/>
  <path d="M142.453 353.096c.742 1.288.753 3.017.026 4.315-.791-3.205-4.965-4.767-7.455-2.789-.914.726-1.904 1.878-2.958 1.418.489-.193.562-1.051.114-1.335 2.087-3.564 7.317-4.383 10.273-1.609Z" fill="#000"/>
  <path d="M150.14 349.763c.1-.443.196-.876.28-1.302.24-1.22.283-2.585.001-3.757-.282-1.167-.871-2.089-1.857-2.55-.691-.323-1.426-.36-2.223-.229-.807.132-1.641.429-2.527.746l-.022.008c-.645.231-1.318.471-1.988.638l8.336 6.446Zm0 0-.017.08c-.464 2.08-.986 4.419-.04 6.526.505 1.121 1.357 1.995 2.14 2.799l.027.028c.555.569 1.077 1.107 1.498 1.707.487.695.759 1.648.711 2.492-.043.746-.324 1.326-.84 1.631-2.154-1.193-4.918-1.19-7.062.028a7.183 7.183 0 0 0-2.391 2.235l-.113-.115c.572-1.1.709-2.419.362-3.612l-.097-.336-.349-.024a5.767 5.767 0 0 0-3.119.683l-.161.087-.067.171-1.151 2.966-.148.382.345.22a4.247 4.247 0 0 0 4.111.218 7.356 7.356 0 0 0-.828 2.572c-2.94-1.62-7.043-.849-9.091 1.861-1.352 1.786-2.687 3.521-4.505 4.581-1.812 1.059-4.176 1.242-5.715.05-.738-.572-1.165-1.556-1.18-2.536-.015-.978.377-1.845 1.141-2.272.764-.427 1.157-1.201 1.259-1.987a3.474 3.474 0 0 0-.514-2.308c-.844-1.293-2.321-1.937-3.637-2.341-.745-.229-1.521-.422-2.286-.613l-.069-.017c-2.816-.699-5.414-1.369-6.843-3.464-1.162-1.703-1.125-4.158.087-5.826 1.211-1.667 3.53-2.454 5.502-1.869 1.587.472 3.073-.137 4.212-1.168 1.136-1.028 1.988-2.521 2.362-3.992.266-1.047.403-2.127.535-3.169l.003-.024c.231-1.825.451-3.527 1.255-5.017.602-1.115 1.834-1.983 3.089-2.283 1.252-.298 2.374-.01 2.958.958m18.626 10.698-18.626-10.698m0 0c2.062 3.411 6.428 5.217 10.29 4.252l-10.29-4.252Zm19.114 10.807c.099-.442.197-.881.282-1.315.499-2.538.203-5.763-2.135-6.856l1.853 8.171Z" fill="#FFFAF0" stroke="ivory"/>
  <path fill-rule="evenodd" clip-rule="evenodd" d="M460.732 228.133c-1.165-1.378-2.33-2.758-3.55-4.082-3.763-4.085-8.375-7.81-13.864-8.639a29.91 29.91 0 0 0-1.75-.197c-1.18-.11-2.358-.22-3.476-.599-1.496-.506-2.795-1.464-3.997-2.487-1.63-1.386-3.2-2.948-4.774-4.515-4.629-4.607-9.288-9.245-15.573-9.489-6.619-.257-12.833 5.687-12.878 12.318-.038 5.563 3.562 10.406 6.994 14.782l59.684 76.101 37.005 47.184c4.778 6.092 11.058 12.836 18.722 11.774 6.888-.955 11.514-9.046 9.551-15.724-.754-2.566-2.24-4.806-3.729-7.051-1.299-1.957-2.6-3.918-3.42-6.102-1.306-3.479-1.294-7.215-1.282-10.968.008-2.872.018-5.754-.564-8.539-1.289-6.167-5.35-11.347-9.481-16.101-2.236-2.573-4.605-6.383-2.468-9.037 2.543-3.16 1.274-7.824-.332-11.55a101.64 101.64 0 0 0-21.914-32.045c-3.97-3.913-9.746-7.722-14.712-5.195-2.094 1.065-4.597-.243-6.421-1.723-2.914-2.367-5.342-5.24-7.771-8.116Zm43.715 49.535c.396 2.023.018 4.31-1.453 5.753-.362.355-.813.662-1.318.683-.864.034-1.518-.739-2.028-1.438l-23.124-31.729c-.889-1.22-.269-3.118 1.026-3.893 1.296-.775 2.991-.592 4.336.094 1.344.686 2.41 1.805 3.429 2.919a145.025 145.025 0 0 1 16.599 22.009c1.079 1.756 2.138 3.579 2.533 5.602Z" fill="#F0FFF4"/>
  <path fill-rule="evenodd" clip-rule="evenodd" d="M411.781 395.312c.819-2.72.624-5.626.421-8.458l-11.799-164.666c2.39 2.584 2.838 6.356 3.165 9.857a4969.796 4969.796 0 0 1 12.05 154.744c.38 6.102.611 12.723-2.88 17.748-2.342 3.371-6.05 5.518-9.75 7.307-13.538 6.545-28.459 9.702-43.336 11.938a390.118 390.118 0 0 1-122.526-1.084c-8.003-1.348-16.122-3.004-23.178-7.004-7.056-4.001-12.984-10.754-14.041-18.78a1746.262 1746.262 0 0 1-14.751-201.593c-.074-4.883-.246-10.132-3.179-14.043-1.712-2.282-4.149-3.81-6.594-5.342-2.094-1.313-4.194-2.629-5.849-4.426-6.191-6.72-3.862-18.195 2.633-24.622 6.496-6.428 15.817-8.979 24.77-10.856a289.838 289.838 0 0 1 79.747-5.438c.787 2.145-2.448 3.348-4.738 3.351a468.183 468.183 0 0 0-74.818 6.111c-9.058 1.478-18.935 3.738-24.422 11.078 24.962 8.206 51.725 8.674 78.007 8.875 46.98.359 94.295.078 140.422-8.82 4.106-.792 8.558-1.868 11.105-5.178 2.546-3.309 1.347-9.438-2.808-9.922a609.58 609.58 0 0 0-107.178-2.97c-2.759.167-6.821-1.488-5.471-3.893a710.57 710.57 0 0 1 98.306 2.154c8.772.803 18.011 1.951 25.029 7.26 7.449 5.635 11.161 15.772 9.106 24.869-2.055 9.097-9.766 16.667-18.917 18.571l-.384 22.386c-2.495-2.567-2.16-6.445-1.839-10.148.065-.755.13-1.503.17-2.231.236-4.298-2.315-9.902-6.54-9.024-66.857 13.897-136.518 14.226-203.503.96.072 63.979 6.125 127.784 12.173 191.478.721 7.597 1.477 15.332 4.466 22.357 2.988 7.024 8.62 13.352 16.035 15.229a367.931 367.931 0 0 0 108.133 10.793c24.815-1.216 50.142-5.171 71.762-17.381 4.675-2.64 9.456-6.055 11.001-11.187Zm-241.445-241.44c-2.203 7.792 2.339 16.248 8.909 21 6.57 4.753 14.771 6.568 22.752 8.038 64.216 11.827 130.62 8.46 194.705-4.054 4.884-.954 10.005-2.08 13.714-5.389 4.111-3.668 5.752-9.514 5.421-15.006-.331-5.492-2.401-10.725-4.717-15.718-3.315 8.099-13.276 10.791-21.922 12.259-57.354 9.733-115.879 11.319-173.981 8.339-6.606-.339-13.223-.738-19.751-1.801a98.007 98.007 0 0 1-25.13-7.668Zm35.688 217.349c-1.262-1.102-2.715-2.371-4.306-1.952-.613 4.111 4.224 6.66 8.186 7.805 5.242 1.515 10.735 2.904 16.095 1.896 1.935-.364 3.86-1.066 5.325-2.391 3.289-2.971 3.395-8.039 3.245-12.49a2789.078 2789.078 0 0 0-6.614-119.627c-.49-6.366-1.385-13.489-6.361-17.437-2.047-1.625-4.567-2.499-7.034-3.345l-17.187-5.893c-2.321-.797-5.351-1.398-6.836.57-.922 1.223-.776 2.925-.588 4.45a1249.664 1249.664 0 0 1 9.207 135.28c.085 6.237 5.528 11.251 11.373 13.291 6.351 2.216 13.262 1.852 19.971 1.462-7.236 4.909-17.7 4.276-24.303-1.469l-.173-.15Zm24.089-3.708c-4.537 3.143-10.571 2.732-15.988 1.746-3.209-.584-6.633-1.469-8.712-4.003-2.144-2.612-2.307-6.289-2.382-9.679a1367.315 1367.315 0 0 0-9.782-135.681l17.69 6.105c4.199 1.45 8.679 3.105 11.233 6.766 2.213 3.171 2.551 7.255 2.817 11.123l3.42 49.748c1.69 24.594 3.381 49.28 1.704 73.875Zm75.293 14.196a81.99 81.99 0 0 0-16.509-2.66l-.284-.016c-4.073-.233-8.668-.495-11.182-3.663-1.19-1.5-1.682-3.419-2.124-5.279-8.767-36.882-9.601-75.112-10.394-113.006l-.382-18.25c-.026-1.264-.075-2.603-.769-3.662-.694-1.058-2.282-1.638-3.268-.842l1.594 62.577c.112 4.378.223 8.757.479 13.129 1.179 20.108 5.403 39.9 9.615 59.601 1.071 5.011 3.245 11.083 8.354 11.672l25.617 2.955c.212.025.431.049.635-.014 1.257-.386-.112-2.202-1.382-2.542Zm92.795-30.074c.254 7.129.316 14.894-4.009 20.569 6.398-4.163 6.86-13.186 6.635-20.813l-1.974-66.806c-.517-17.473-1.066-35.162-5.894-51.964-.88-3.06-1.98-6.212-4.29-8.405-2.31-2.193-6.174-3.066-8.706-1.133-5.053 3.859-11.768 3.991-18.243 4.118-1.004.019-2.002.039-2.986.072-7.342.249-15.879 2.384-18.669 9.175-1.716 4.177-.685 8.897.282 13.323l.066.301c5.289 24.252 6.007 49.111 6.725 73.986.327 11.348.655 22.7 1.417 33.998.453 6.713 1.164 13.728 4.864 19.349.732 1.112 1.607 2.183 2.786 2.803 1.118.589 2.412.724 3.671.827 6.798.552 13.807.415 20.202-1.955 6.395-2.37 12.128-7.278 14.112-13.799 1.211-3.98.975-8.234.743-12.39l-.007-.132a805.666 805.666 0 0 1-.839-70.244c.503-16.952 1.023-34.482-6.032-49.835-.943-2.052-2.091-4.132-3.983-5.369-.098-.064-.2-.128-.303-.193-.737-.466-1.537-.971-1.599-1.81 1.492-1.076 3.696-.56 5.047.687 1.352 1.248 2.042 3.038 2.636 4.778a93.466 93.466 0 0 1 4.558 21.027c.38 3.863.518 7.745.655 11.625l3.135 88.21ZM343.93 233.708c2.652-3.066 7.159-3.529 11.207-3.776l21.412-1.306c2.147-.131 4.486-.21 6.235 1.042 1.198.857 1.925 2.214 2.542 3.551 4.96 10.727 5.494 22.901 5.738 34.715.682 32.941-.247 65.914-2.784 98.764-.273 3.541-3.065 6.488-6.29 7.98-3.225 1.491-6.853 1.797-10.395 2.081l-9.891.793c-1.222.098-2.514.183-3.613-.361-1.61-.796-2.319-2.673-2.837-4.393-5.346-17.765-5.368-36.389-5.39-55.057-.011-9.77-.023-19.552-.797-29.23-1.114-13.905-3.813-27.628-6.506-41.317l-.044-.227c-.89-4.524-1.604-9.771 1.413-13.259Zm97.068 158.187a14.416 14.416 0 0 0 6.787 3.766c2.187.52 3.593 3.119 2.812 5.199.061.3-.413.46-.663.279-.215-.155-.3-.42-.382-.675l-.001-.004-.039-.119c-.62-1.832-2.638-2.75-4.436-3.515-2.547-1.084-5.148-2.342-6.843-4.507-1.695-2.165-2.183-5.486-.389-7.573 1.174-1.366 3.024-1.93 4.768-2.428 2.326-.665 4.766-1.335 7.135-.845l.54 1.062c1.122.684 2.697.539 3.672-.338 1.083-.975 2.735-.901 4.196-.769l7.889.718c.385.035.791.077 1.105.3.934.661.187 2.259-.917 2.574-.794.227-1.619.072-2.445-.084h-.001c-.321-.06-.642-.121-.961-.159-.396-.047-.811-.057-1.18.094-1.103.452-1.173 1.981-.829 3.109.059.195.125.392.192.59.319.95.649 1.93.281 2.835-1.024.457-2.218-.474-2.526-1.54-.234-.811-.136-1.66-.039-2.506l.022-.196.019-.17a8.47 8.47 0 0 0 .022-.218l.019-.215c.084-1.106-.095-2.369-1.001-3.026a23.211 23.211 0 0 1-11.847 2.106c-.32-.028-.64-.062-.961-.097-1.024-.112-2.05-.223-3.072-.117-1.341.139-2.72.729-3.402 1.876a2.48 2.48 0 0 1 1.067 1.464l12.907 2.49c-.958 1.041-2.583 1.053-4.007.987l-7.492-.348Zm-116.242-34.069a826.19 826.19 0 0 1-2.482-93.998l.022-.709c.212-6.869.427-13.841-1.371-20.467-1.86-6.855-6.273-13.42-12.917-16.01-3.859-1.504-8.111-1.562-12.255-1.601-10.79-.1-21.675-.192-32.246 1.96-3.503.713-7.333 1.955-9.016 5.094-1.166 2.173-1.023 4.78-.85 7.238l9.41 133.676c.181 2.567.413 5.281 1.922 7.371 1.567 2.17 4.217 3.255 6.766 4.095a75.999 75.999 0 0 0 33.74 3.134c-1.028-1.456-3.017-1.792-4.792-2.007l-22.058-2.665c-2.222-.269-4.512-.559-6.453-1.668-4.698-2.683-5.649-8.902-6.089-14.274-3.52-43.072-7.042-86.157-8.896-129.332-.1-2.338.014-5.111 1.977-6.401.994-.654 2.244-.748 3.432-.823l32.432-2.047c3.663-.231 7.448-.446 10.896.804 4.775 1.73 8.194 6.067 10.142 10.737 2.974 7.126 3.036 15.078 2.936 22.794-.071 5.553-.202 11.113-.333 16.674v.001c-.501 21.259-1.002 42.54 1.825 63.585.136 1.018.279 2.045.423 3.077l.001.006c1.682 12.082 3.477 24.979-3.053 35.095l-.064.097-.046.072c-.489.752-.998 1.536-1.022 2.424-.026.955.833 1.99 1.758 1.736.363-.1.651-.369.914-.637 6.65-6.802 6.137-17.575 5.347-27.031Zm-50.268-210.452c4.226.165 8.715 1.184 11.626 4.352.566.616 1.071 1.311 1.575 2.003 1.05 1.443 2.094 2.877 3.668 3.578a14.26 14.26 0 0 0-7.55-.567c-.87.173-1.726.427-2.58.68-1.35.401-2.698.801-4.095.877l2.79-2.449c.998-.876 2.127-1.802 3.436-1.758.215-2.224-1.505-4.339-3.595-4.922-2.09-.582-4.375.156-6.094 1.514-1.719 1.358-2.947 3.271-3.966 5.243-.406.784-.959 1.701-1.82 1.69-.713-.36-.685-1.444-.338-2.181.1-.213.218-.421.336-.628v-.001h.001c.291-.512.582-1.023.6-1.605.048-1.488-1.591-2.335-2.958-2.805-1.364-.47-3.015-.889-4.114.067-.799.695-.984 1.869-1.116 2.939l-.45 3.635a12.09 12.09 0 0 1-7.314.209c2.822-1.758 5.925-3.927 6.448-7.286a39.01 39.01 0 0 1 15.51-2.585ZM150.91 348.56c.499-2.538.203-5.763-2.135-6.856-1.62-.757-3.376-.129-5.13.499-.657.235-1.313.47-1.962.632-3.649.911-7.793-.802-9.741-4.026-1.475-2.443-5.56-1.166-6.915 1.346-.856 1.587-1.083 3.385-1.311 5.192-.134 1.055-.268 2.113-.527 3.133-.704 2.768-3.215 5.616-5.947 4.804-2.176-.646-4.713.216-6.049 2.054-1.336 1.839-1.376 4.524-.095 6.402 1.556 2.281 4.368 2.98 7.135 3.667.79.197 1.577.392 2.329.623 1.296.398 2.623.999 3.365 2.136.743 1.136.613 2.924-.57 3.585-1.939 1.084-1.78 4.28-.024 5.64 1.757 1.361 4.356 1.107 6.274-.013 1.918-1.119 3.31-2.939 4.651-4.712 2.063-2.729 6.411-3.337 9.14-1.278-.014-2.381 1.338-4.723 3.405-5.896 2.067-1.174 4.765-1.133 6.795.103 1.778-.72 1.661-3.403.559-4.976-.448-.639-.999-1.205-1.549-1.769-.802-.823-1.601-1.643-2.069-2.683-.878-1.955-.388-4.152.089-6.292h.001c.098-.442.196-.881.281-1.315Zm-6.187-4.381c1.424-.327 3.122-.162 4.036.98 1.188 1.484.405 3.29-.412 5.175-.666 1.539-1.356 3.132-1.018 4.647.268 1.2 1.155 2.148 2.006 3.033l4.033 4.188c-1.708 1.587-4.068.938-6.49.271-2.178-.599-4.406-1.212-6.254-.224-1.353.723-2.13 2.138-2.879 3.501l-.265.481a28.15 28.15 0 0 1-9.818 10.215c-.518.318-1.092.629-1.697.57-1.476-.144-1.849-2.181-1.477-3.621.437-1.696 1.328-3.27 2.212-4.829 1.276-2.253 2.536-4.477 2.39-7.003-1.552 2.574-4.927 3.556-7.898 3.135-2.97-.421-5.645-1.971-8.234-3.49-1.788-1.049-1.148-4.065.635-5.123 1.782-1.058 4.019-.772 6.07-.475 2.05.297 4.308.529 6.042-.607a21.93 21.93 0 0 1 .553-11.557c.438-1.338 1.077-2.717 2.281-3.443 1.204-.726 3.088-.43 3.589.887 1.24 3.264 5.013 5.336 8.426 4.627.741-.154 1.451-.42 2.162-.686.66-.247 1.321-.495 2.007-.652Zm-.788 19.525a4.423 4.423 0 0 1-.505 3.553l.191.194a3.745 3.745 0 0 1-3.684-.158l1.151-2.966a5.263 5.263 0 0 1 2.847-.623Zm314.064 51.346a49.431 49.431 0 0 1-6.998-19.509c2.528.645 3.834 3.418 4.251 5.955.117.709.194 1.432.27 2.155.198 1.861.396 3.721 1.275 5.357 1.222 2.272 4.52 3.75 6.475 2.046.486-.423.853-1.003 1.214-1.573.589-.93 1.161-1.835 2.208-1.992 1.298-.195 2.355.959 3.14 1.995l4.817 6.36c1.262-.376 1.344-1.716 1.432-3.135.054-.873.11-1.776.444-2.504.77-1.681 2.671-1.952 4.651-2.234 1.389-.199 2.818-.403 3.924-1.103 1.986-1.259 2.518-4.03 1.78-6.238-.739-2.208-2.465-3.95-4.253-5.47-2.59-2.203-2.135-5.781-1.674-9.4.442-3.47.888-6.979-1.341-9.351-3.111-3.31-8.648-1.548-12.765.432l-1.752-2.005c3.359-1.226 3.968-6.131 1.779-8.922-2.19-2.791-6.062-3.748-9.645-3.764-.519-.002-1.082.026-1.482.353-1.243 1.013.511 2.794 2.01 3.382l7.323 2.874c-1.692 1.148-3.927.468-6.095-.191-2.353-.715-4.628-1.407-6.05.283-1.597 1.898.087 4.855 2.253 6.092.837.478 1.747.837 2.654 1.196 1.44.57 2.873 1.136 3.996 2.168-1.458.731-3.115.198-4.728-.322-.41-.132-.816-.263-1.216-.372-1.977-.54-4.839.133-4.814 2.151-2.031-2.243-1.495-5.686-.834-8.619.742-3.286 1.544-6.692 3.656-9.339 2.113-2.648 5.94-4.292 9.047-2.884 2.649 1.2 3.889 4.033 5.071 6.733l.002.003c.181.415.362.827.546 1.23 1.38 3.021 4.13 6.22 7.424 5.537 2.989-.62 5.98 1.605 7.23 4.349 1.249 2.743 1.178 5.868 1.084 8.873-.095 3.011 1.272 5.772 2.635 8.524.459.925.916 1.849 1.318 2.782 1.596 3.706 2.018 8.687-1.233 11.129-1.102.827-2.443 1.209-3.788 1.592-.619.176-1.238.352-1.836.572-1.895.699-3.809 2.257-3.65 4.242.021.26.078.52.135.778.096.438.192.873.111 1.309-.228 1.23-1.814 1.814-3.035 1.465-1.22-.348-2.134-1.321-2.982-2.253l-5.383-5.911c-1.502 3.177-5.042 5.307-8.601 5.174Zm-.817-190.996c-3.763-4.086-8.375-7.811-13.864-8.64-.579-.088-1.164-.142-1.75-.197-1.18-.11-2.358-.22-3.476-.598-1.496-.506-2.794-1.465-3.997-2.487-1.63-1.386-3.2-2.949-4.774-4.515-4.629-4.608-9.288-9.245-15.573-9.489-6.619-.258-12.833 5.687-12.878 12.317-.037 5.563 3.562 10.406 6.994 14.782l59.684 76.102 37.005 47.183c4.778 6.093 11.058 12.836 18.722 11.774 6.888-.955 11.514-9.046 9.551-15.724-.754-2.566-2.24-4.806-3.729-7.05-1.299-1.958-2.6-3.919-3.42-6.103-1.306-3.479-1.294-7.215-1.282-10.968.009-2.872.018-5.754-.564-8.538-1.289-6.168-5.35-11.347-9.481-16.102-2.235-2.572-4.605-6.382-2.468-9.037 2.543-3.159 1.274-7.824-.332-11.549a101.627 101.627 0 0 0-21.914-32.046c-3.97-3.912-9.746-7.721-14.712-5.195-2.094 1.065-4.597-.242-6.421-1.723-2.914-2.366-5.342-5.24-7.771-8.115-1.165-1.379-2.33-2.758-3.55-4.082Zm-50.372-20.025c2.455-2.403 6.165-3.441 9.509-2.661 3.822.891 6.781 3.852 9.365 6.809 6.817 7.801 12.568 16.455 18.306 25.09.641.965 1.281 1.929 1.923 2.891a1045.003 1045.003 0 0 0 78.985 103.774c2.784 3.219 5.785 7.188 4.697 11.304-1.231 4.66-7.369 6.468-11.893 4.818-4.524-1.65-7.74-5.611-10.721-9.396l-98.428-124.991c-1.956-2.483-3.969-5.087-4.616-8.182-.703-3.364.418-7.053 2.873-9.456Zm79.787 72.969c-1.982-2.562-4.104-5.082-6.797-6.881-1.299-.868-2.765-1.616-4.23-2.364-3.749-1.914-7.489-3.824-8.406-7.72-.29-1.237-.225-2.51-.159-3.787.051-.997.102-1.995-.015-2.98-.194-1.617-.837-3.144-1.538-4.614-5.314-11.154-14.444-20.442-25.498-25.94-1.833-.912-.696-4.091 1.311-4.485 2.008-.395 3.922.907 5.521 2.186 15.806 12.643 27.358 29.35 38.946 46.107 7.071 10.226 14.155 20.471 22.227 29.823.776.899 1.564 1.794 2.352 2.69 4.392 4.987 8.817 10.013 11.453 16.078-3.463.619-6.463 3.341-7.417 6.73-5.77-5.437-9.256-12.688-12.723-19.896-.889-1.849-1.777-3.696-2.701-5.508a123.713 123.713 0 0 0-12.326-19.439Zm16.397 6.425c-.362.355-.812.662-1.318.683-.864.035-1.518-.738-2.027-1.437l-23.125-31.729c-.889-1.221-.269-3.119 1.027-3.894 1.295-.775 2.99-.592 4.335.094 1.344.686 2.41 1.806 3.429 2.919a145.075 145.075 0 0 1 16.599 22.009c1.079 1.756 2.138 3.58 2.533 5.603.396 2.023.018 4.31-1.453 5.752Zm3.386-3.109c.415-1.63-.288-3.317-1.016-4.833a94.934 94.934 0 0 0-21.511-28.95c-1.445-1.32-3.327-2.686-5.185-2.074-.686.225-1.244.691-1.805 1.159-.326.273-.654.546-1.008.774-.963.617-2.492.744-3.039-.261-.423-.777.019-1.752.609-2.411 2.032-2.274 5.61-2.586 8.47-1.53 2.86 1.056 5.157 3.213 7.315 5.368 7.774 7.763 15.023 16.507 18.42 26.96 1.516 4.666 1.996 10.392-1.412 13.918-.283.293-.599.572-.984.706-1.217.426-2.488-.873-2.518-2.163-.029-1.291.767-2.443 1.594-3.434l.267-.317c.75-.887 1.518-1.795 1.803-2.912Zm-50.184-43.178a93.064 93.064 0 0 1 8.163 14.516c.314.696.602 1.565.136 2.17-.338.439-1.04.538-1.486.208a191.001 191.001 0 0 1-17.658-25.418c.465.168 1.147-.08 1.104-.572 4.173 1.701 7.187 5.38 9.741 9.096Zm22.991 38.67c-.578-.837-1.068-2.175-.195-2.698 3.845 1.741 6.476 5.332 8.873 8.808a399.716 399.716 0 0 1 10.13 15.446c.78 1.251 1.453 3.127.255 3.987-2.042-.925-3.416-2.857-4.69-4.704l-14.373-20.839Zm38.217 47.519c-.307-.133-.522-.42-.666-.723-.873-1.825 1.032-4.266 3.013-3.861a8.51 8.51 0 0 1-1.392 5.062c-.1-.236-.359-.304-.621-.373-.115-.03-.231-.06-.334-.105Zm4.483 4.281c-.605.659-1.781.657-2.385-.002-.638-1.673.133-3.762 1.705-4.617l.68 4.619Z" fill="#00160A"/>
</svg>
